<svg id="Layer_1" data-name="Layer 1" xmlns="http://www.w3.org/2000/svg" viewBox="0 0 863.42 111.17"><defs><style>.cls-1{fill:none;}</style></defs><title>ActuaPolls</title><path d="M655.74,9.58a3.71,3.71,0,0,0-6.08,0L598.14,74l-19.8-24.77a3.72,3.72,0,0,0-6.08,0,6.36,6.36,0,0,0,0,7.6L595.1,85.43a3.73,3.73,0,0,0,6.08,0l54.56-68.25A6.36,6.36,0,0,0,655.74,9.58Z" transform="translate(-4.89 -8)"/><polygon class="cls-1" points="412.31 75.51 402.71 53.24 392.98 75.51 412.31 75.51"/><path class="cls-1" d="M618.83,41.71,617,44l1.83-2.29a31.93,31.93,0,0,0-44.09,1.11,31.18,31.18,0,0,0-9.41,22.66,30.91,30.91,0,0,0,9.41,22.67,32.1,32.1,0,0,0,54.73-22.67,33.12,33.12,0,0,0-.94-7.93L625,62l3.53-4.45A31.31,31.31,0,0,0,620,42.82C619.61,42.44,619.23,42.07,618.83,41.71Z" transform="translate(-4.89 -8)"/><polygon class="cls-1" points="57.67 75.51 48.07 53.24 38.34 75.51 57.67 75.51"/><path class="cls-1" d="M501.72,33.88h-15.8V65.61l15.8.07a15.9,15.9,0,0,0,0-31.8Z" transform="translate(-4.89 -8)"/><path d="M4.89,118.19H27.75l7.12-16H70.92l7.12,16H101L52.89,10.76ZM62.56,83.51H43.23L53,61.24Z" transform="translate(-4.89 -8)"/><path d="M149.75,97.68a30.74,30.74,0,0,1-22.59-9.34,30.89,30.89,0,0,1-9.41-22.66A31.18,31.18,0,0,1,127.16,43a30.52,30.52,0,0,1,22.59-9.41A31.16,31.16,0,0,1,172.41,43L187.5,27.93a54.36,54.36,0,0,0-37.88-15.61l.07-.26q-21.94,0-37.69,15.74T96.33,65.61A51.49,51.49,0,0,0,112,103.36a51.84,51.84,0,0,0,37.69,15.55,53.17,53.17,0,0,0,37.88-15.55L172.48,88.28A31,31,0,0,1,149.75,97.68Z" transform="translate(-4.89 -8)"/><polygon points="187.9 25.88 213.83 25.88 213.83 110.19 235.06 110.19 235.06 25.88 260.92 25.88 260.92 4.91 187.9 4.91 187.9 25.88"/><path d="M360.12,12.91H338.83V76.59c0,11.41-9.83,21.16-21.29,21.16a21.49,21.49,0,0,1-21.29-21.16V12.91H275V76.65a42.58,42.58,0,1,0,85.16,0Z" transform="translate(-4.89 -8)"/><path d="M359.54,118.19H382.4l7.11-16h36.05l7.12,16h22.93L407.54,10.76ZM417.2,83.51H397.87l9.73-22.27Z" transform="translate(-4.89 -8)"/><path d="M501.72,12.91h-37V118.19h21.16V86.58h15.8A35.83,35.83,0,0,0,527.84,75.8a34.79,34.79,0,0,0,10.91-26,35.48,35.48,0,0,0-10.91-26.12A35.54,35.54,0,0,0,501.72,12.91Zm0,52.77-15.8-.07V33.88h15.8a15.9,15.9,0,0,1,0,31.8Z" transform="translate(-4.89 -8)"/><path d="M628.53,57.55a33.12,33.12,0,0,1,.94,7.93A30.67,30.67,0,0,1,620,88.15a32,32,0,0,1-54.67-22.67,31.18,31.18,0,0,1,9.41-22.66,31.93,31.93,0,0,1,44.09-1.11L632.17,25a51.13,51.13,0,0,0-34.77-13q-22,0-37.75,15.74A51.81,51.81,0,0,0,544,65.61a53.3,53.3,0,0,0,53.42,53.3,51.69,51.69,0,0,0,37.75-15.55,51.21,51.21,0,0,0,15.74-37.75,51.43,51.43,0,0,0-7.28-27.07Z" transform="translate(-4.89 -8)"/><polygon points="676.17 4.91 655.01 4.91 655.01 110.19 718.49 110.19 718.49 89.16 676.17 89.16 676.17 4.91"/><polygon points="748.8 4.91 727.64 4.91 727.64 110.19 791.12 110.19 791.12 89.16 748.8 89.16 748.8 4.91"/><path d="M843.31,58.28C836,56.11,824,53.59,824,44.11A10.69,10.69,0,0,1,845.36,44l21-4.44A32.12,32.12,0,0,0,802.44,44c0,14.34,11.34,24.88,24.17,29.25,7.28,2.52,20.18,3.86,20.18,13.48,0,5.84-6.45,10.69-12.29,10.69l.09.1c-5.93,0-12.32-4.79-12.32-10.67l-21,4.47C803.65,107,818.37,119,834.66,119c17.72,0,33.65-14.33,33.65-32.09C868.31,72.24,856.6,62.12,843.31,58.28Z" transform="translate(-4.89 -8)"/></svg>